<?xml version="1.0" encoding="iso-8859-1"?>
<!-- Generator: Adobe Illustrator 19.0.0, SVG Export Plug-In . SVG Version: 6.00 Build 0)  -->
<svg version="1.1" id="Capa_1" xmlns="http://www.w3.org/2000/svg" xmlns:xlink="http://www.w3.org/1999/xlink" x="0px" y="0px"
	 viewBox="0 0 511.751 511.751" style="enable-background:new 0 0 511.751 511.751;" xml:space="preserve">
<g>
	<g transform="translate(1 1)">
		<path style="fill:#A4C2F7;" d="M425.529,203.551v281.6c-0.028,9.414-7.653,17.039-17.067,17.067h-307.2
			c-9.414-0.028-17.039-7.653-17.067-17.067v-281.6l157.867-162.56l12.8-13.227L425.529,203.551z"/>
		<path style="fill:#E3E7F2;" d="M399.929,203.551v281.6c-0.028,9.414-7.653,17.039-17.067,17.067h-281.6
			c-9.414-0.028-17.039-7.653-17.067-17.067v-281.6l157.867-162.56L399.929,203.551z"/>
		<path style="fill:#F5F5F5;" d="M461.113,254.751h-2.901c-4.371-0.007-8.567-1.721-11.691-4.779
			c-0.162-0.087-0.307-0.202-0.427-0.341L254.863,52.682L63.631,249.631c-0.12,0.139-0.265,0.255-0.427,0.341
			c-3.124,3.057-7.32,4.772-11.691,4.779h-2.901c-7.005-0.193-13.23-4.516-15.858-11.011s-1.159-13.932,3.741-18.941L242.831,12.404
			c3.148-3.271,7.492-5.119,12.032-5.119c4.54,0,8.884,1.848,12.032,5.119l206.336,212.395c4.9,5.009,6.369,12.445,3.741,18.941
			S468.118,254.558,461.113,254.751z"/>
		<path style="fill:#7FABFA;" d="M314.596,365.684v136.533H195.129V365.684c0.028-9.414,7.653-17.039,17.067-17.067h85.333
			C306.943,348.646,314.568,356.27,314.596,365.684z"/>
		<path style="fill:#E3E7F2;" d="M288.996,365.684v136.533h-93.867V365.684c0.028-9.414,7.653-17.039,17.067-17.067h59.733
			C281.343,348.646,288.968,356.27,288.996,365.684z"/>
		<path style="fill:#A4C2F7;" d="M220.729,195.018h68.267c9.426,0,17.067,7.641,17.067,17.067v59.733
			c0,9.426-7.641,17.067-17.067,17.067h-68.267c-9.426,0-17.067-7.641-17.067-17.067v-59.733
			C203.663,202.659,211.304,195.018,220.729,195.018z"/>
		<g>
			<path style="fill:#E3E7F2;" d="M220.729,195.018h42.667c9.426,0,17.067,7.641,17.067,17.067v59.733
				c0,9.426-7.641,17.067-17.067,17.067h-42.667c-9.426,0-17.067-7.641-17.067-17.067v-59.733
				C203.663,202.659,211.304,195.018,220.729,195.018z"/>
			<path style="fill:#E3E7F2;" d="M461.113,254.751h-2.901c-3.847,0.029-7.575-1.335-10.496-3.84
				c3.816-3.171,6.14-7.786,6.415-12.74c0.275-4.954-1.523-9.798-4.964-13.372L242.831,12.404c3.148-3.271,7.492-5.119,12.032-5.119
				c4.54,0,8.884,1.848,12.032,5.119l206.336,212.395c4.9,5.009,6.369,12.445,3.741,18.941S468.118,254.558,461.113,254.751z"/>
		</g>
		<g>
			<path style="fill:#FFFFFF;" d="M48.612,254.751h2.901c4.248-0.013,8.331-1.646,11.418-4.565
				c-3.538-3.219-5.624-7.732-5.785-12.513c-0.161-4.781,1.618-9.424,4.932-12.873L267.663,13.198l-0.768-0.794
				c-3.148-3.271-7.492-5.119-12.032-5.119c-4.54,0-8.884,1.848-12.032,5.119L36.495,224.799c-4.9,5.009-6.369,12.445-3.741,18.941
				S41.607,254.558,48.612,254.751z"/>
			<path style="fill:#FFFFFF;" d="M89.231,224.731c-0.12,0.139-0.265,0.255-0.427,0.341c-1.351,1.291-2.908,2.347-4.608,3.123
				v256.956c0.028,9.414,7.653,17.039,17.067,17.067h25.6c-9.414-0.028-17.039-7.653-17.067-17.067v-281.6L89.231,224.731z"/>
		</g>
	</g>
	<g>
		<polygon style="fill:#FFFFFF;" points="93.729,306.951 93.729,417.884 93.729,486.151 76.663,486.151 76.663,417.884 
			76.663,306.951 		"/>
		<g>
			<path style="fill:#428DFF;" d="M93.729,306.951v-17.067c0-4.713-3.821-8.533-8.533-8.533s-8.533,3.82-8.533,8.533v51.2
				c0,4.713,3.821,8.533,8.533,8.533s8.533-3.82,8.533-8.533V306.951z"/>
			<path style="fill:#428DFF;" d="M76.663,486.151c0,14.138,11.462,25.6,25.6,25.6h307.2c14.138,0,25.6-11.462,25.6-25.6V289.884
				c0-4.713-3.821-8.533-8.533-8.533c-4.713,0-8.533,3.82-8.533,8.533v196.267c0,4.713-3.82,8.533-8.533,8.533h-85.333v-128
				c0-14.138-11.462-25.6-25.6-25.6h-85.333c-14.139,0-25.6,11.462-25.6,25.6v128h-85.333c-4.713,0-8.533-3.821-8.533-8.533v-76.8
				c0-4.713-3.821-8.533-8.533-8.533s-8.533,3.82-8.533,8.533V486.151z M204.663,366.684c0-4.713,3.821-8.533,8.533-8.533h85.333
				c4.713,0,8.533,3.821,8.533,8.533v128h-102.4V366.684z"/>
			<path style="fill:#428DFF;" d="M88.439,367.367c-0.484-0.247-1.001-0.419-1.536-0.512c-0.564-0.095-1.135-0.152-1.707-0.171
				c-2.259,0.033-4.422,0.917-6.059,2.475c-0.771,0.816-1.38,1.772-1.792,2.816c-1.287,3.183-0.586,6.825,1.792,9.301
				c0.816,0.771,1.772,1.38,2.816,1.792c1.026,0.437,2.128,0.669,3.243,0.683c3.467,0.02,6.601-2.059,7.931-5.261
				c1.329-3.202,0.59-6.89-1.872-9.331l-1.28-1.024C89.499,367.812,88.983,367.553,88.439,367.367z"/>
			<path style="fill:#428DFF;" d="M49.603,264.284h2.918c6.103-0.059,11.98-2.316,16.555-6.357c0.609-0.397,1.18-0.848,1.707-1.348
				L255.863,65.927l185.216,190.754c0.494,0.469,1.028,0.894,1.596,1.271c4.572,4.025,10.438,6.272,16.529,6.332h2.918
				c10.321,0.045,19.631-6.196,23.509-15.761c4.175-9.766,2.079-21.083-5.316-28.706L274.047,7.482
				c-10.071-9.976-26.298-9.976-36.369,0L31.436,219.817c-7.395,7.623-9.491,18.94-5.316,28.706
				C29.995,258.079,39.292,264.319,49.603,264.284z M43.63,231.704L249.889,19.378c1.573-1.585,3.714-2.477,5.948-2.477
				s4.374,0.892,5.948,2.477l206.293,212.326c2.625,2.705,3.35,6.729,1.835,10.18c-1.269,3.199-4.35,5.308-7.791,5.333h-2.918
				c-2.258,0.001-4.417-0.925-5.973-2.56c-0.06-0.068-0.154-0.085-0.213-0.145c-0.06-0.06-0.119-0.154-0.196-0.213L261.981,47.734
				l-0.102-0.068l-0.043-0.128c-0.411-0.329-0.854-0.614-1.323-0.853c-0.442-0.353-0.92-0.659-1.425-0.913
				c-0.524-0.169-1.065-0.284-1.613-0.341c-1.025-0.375-2.15-0.375-3.174,0c-0.548,0.058-1.088,0.172-1.613,0.341
				c-0.505,0.255-0.983,0.561-1.425,0.913c-0.469,0.239-0.912,0.525-1.323,0.853l-0.068,0.102l-0.102,0.068L58.888,244.299
				c-0.077,0.06-0.111,0.145-0.188,0.205c-0.077,0.06-0.162,0.085-0.222,0.154c-1.557,1.635-3.716,2.561-5.973,2.56h-2.901
				c-3.441-0.025-6.522-2.135-7.791-5.333c-1.515-3.451-0.79-7.476,1.835-10.18H43.63z"/>
			<path style="fill:#428DFF;" d="M289.996,298.418c14.138,0,25.6-11.462,25.6-25.6v-59.733c0-14.138-11.462-25.6-25.6-25.6h-68.267
				c-14.138,0-25.6,11.462-25.6,25.6v59.733c0,14.138,11.462,25.6,25.6,25.6H289.996z M213.196,272.818v-59.733
				c0-4.713,3.821-8.533,8.533-8.533h68.267c4.713,0,8.533,3.82,8.533,8.533v59.733c0,4.713-3.82,8.533-8.533,8.533h-68.267
				C217.017,281.351,213.196,277.53,213.196,272.818z"/>
			<path style="fill:#428DFF;" d="M230.263,417.884h-8.533c-4.713,0-8.533,3.821-8.533,8.533s3.821,8.533,8.533,8.533h8.533
				c4.713,0,8.533-3.82,8.533-8.533S234.975,417.884,230.263,417.884z"/>
		</g>
	</g>
</g>
<g>
</g>
<g>
</g>
<g>
</g>
<g>
</g>
<g>
</g>
<g>
</g>
<g>
</g>
<g>
</g>
<g>
</g>
<g>
</g>
<g>
</g>
<g>
</g>
<g>
</g>
<g>
</g>
<g>
</g>
</svg>
